<svg width="600" height="500" fill="black">
        <ellipse cx="200" cy="350" rx="60" ry="20" fill="#d3d3d3" ></ellipse>
        <circle r="100"  cx="200" cy="250" fill="orange"></circle>
        <circle r="40" cx="190" cy="230" fill="white"></circle>
        <circle r="40" cx="240" cy="230" fill="white"></circle>
        <circle r="10" cx="200" cy="230" fill="black"></circle>
        <circle r="10" cx="250" cy="230" fill="black"></circle>
        <circle r="13" cx="220" cy="270" fill="black"></circle>
        <ellipse cx="200" cy="310" rx="20" ry="10" fill="red"></ellipse>
        <ellipse cx="150" cy="250" rx="70" ry="25" fill="orange" transform="rotate(20 70 30)" ></ellipse>
        <polygon points="10,240 30,270 40,235" fill="white"></polygon>
        <polygon points="140,130 130,190 200,160" fill="orange"></polygon>
        <polygon points="250,130 170,170 270,190" fill="orange"></polygon>
        <polygon points="145,140 140,170 170,155" fill="black"></polygon>
        <polygon points="245,140 255,170 215,155" fill="black"></polygon>

        <ellipse cx="500" cy="350" rx="60" ry="20" fill="#d3d3d3" ></ellipse>
        <circle r="100"  cx="500" cy="250" fill="#f4d734"></circle>
        <circle r="40" cx="460" cy="230" fill="white"></circle>
        <circle r="40" cx="510" cy="230" fill="white"></circle>
        <circle r="10" cx="450" cy="230" fill="black"></circle>
        <circle r="10" cx="500" cy="230" fill="black"></circle>
        <ellipse cx="500" cy="310" rx="10" ry="20" fill="red"></ellipse>
    </svg>